# xmcd CD database file
#
# Track frame offsets:
#	150
#	999
#	14896
#	27600
#	41515
#	53768
#	65870
#	79681
#	93039
#	107385
#	118719
#	132653
#	146027
#	158958
#	172434
#	186743
#	199984
#	213501
#	227604
#	241313
#	253386
#	266133
#	280402
#	290459
#	302156
#	315524
#	328234
#	329124
#	329973
#	330814
#	332161
#	333010
#	333859
#	334724
#	335729
#	336578
#	337121
#
# Disc length: 4526 seconds
#
# Revision: 0
# Processed by: cddbd v1.5.2PL0 Copyright (c) Steve Scherf et al.
# Submitted via: CDex 1.51
#
DISCID=6011ac25
DTITLE=Various Artist - WHISTLING TREE FROG
DYEAR=2000
DGENRE=Jazz
TTITLE0=Whistling Tree Frog
TTITLE1=Original Crescent City Jazzers - Original Crescent City Jazzers
TTITLE2=Original Crescent City Jazzers - Sensation Rag
TTITLE3=Arcadian Serenaders - Back Home In Illinois
TTITLE4=Arcadian Serenaders - Bobbed Hair Bobbie (Bobbie Be
TTITLE5=Arcadian Serenaders - Carry It Down
TTITLE6=Arcadian Serenaders - You Gotta Know How
TTITLE7=Arcadian Serenaders - The Co-Ed
TTITLE8=Arcadian Serenaders - Who Can Your Regular Be
TTITLE9=Arcadian Serenaders - Original Dixieland One-Step
TTITLE10=Arcadian Serenaders - Just A Little Bit Bad
TTITLE11=Arcadian Serenaders - Fidgety Feet
TTITLE12=Arcadian Serenaders - San Sue Strut
TTITLE13=Arcadian Serenaders - Yes Sir, Boss
TTITLE14=Joe Manone's Harmony Kings - Cat's Head
TTITLE15=Joe Manone's Harmony Kings - Sadness Will Be Gladness
TTITLE16=Joe Manone's Harmony Kings - Ringside Stomp
TTITLE17=Barbecue Joe and his Hot Dogs - Tar Paper Stomp
TTITLE18=Benny Goodman's Boys - After A While
TTITLE19=Benny Goodman's Boys - A Jazz Holiday
TTITLE20=Benny Goodman's Boys - Blue - Benny Goodman's Boys - Blue
TTITLE21=Benny Goodman's Boys - Jungle Blues
TTITLE22=Benny Goodman's Boys - Muskrat - Benny Goodman's Boys - Muskrat
TTITLE23=Benny Goodman's Boys - Room 1411 (Goin' To Town)
TTITLE24=Benny Goodman's Boys - Shirt Tail Stomp
TTITLE25=Benny Goodman's Boys - Wolverine Blues
TTITLE26=Clarence Croaker - Victorian Banjo Frog
TTITLE27=brown - striped-frog
TTITLE28=com - east-frog
TTITLE29=dumerili - dumerili
TTITLE30=east - banjo-frog
TTITLE31=east - froglet
TTITLE32=interioris - interioris
TTITLE33=per - tree-frog
TTITLE34=spot - grass-frog
TTITLE35=Tasmanian - Froglet
TTITLE36=A "Froggie" Boomer - WA banjo frog
EXTD=YEAR: 2000
EXTT0=
EXTT1=
EXTT2=
EXTT3=
EXTT4=
EXTT5=
EXTT6=
EXTT7=
EXTT8=
EXTT9=
EXTT10=
EXTT11=
EXTT12=
EXTT13=
EXTT14=
EXTT15=
EXTT16=
EXTT17=
EXTT18=
EXTT19=
EXTT20=
EXTT21=
EXTT22=
EXTT23=
EXTT24=
EXTT25=
EXTT26=
EXTT27=
EXTT28=
EXTT29=
EXTT30=
EXTT31=
EXTT32=
EXTT33=
EXTT34=
EXTT35=
EXTT36=
PLAYORDER=
